<svg width="768" height="175" viewBox="0 0 768 175" fill="none" xmlns="http://www.w3.org/2000/svg">
<path d="M-68 161H146C159.255 161 170 150.255 170 137V30C170 16.7452 180.745 6 194 6H196C209.255 6 220 16.7452 220 30V137C220 150.255 230.745 161 244 161H513C526.255 161 537 150.255 537 137V30C537 16.7452 547.745 6 561 6H563C576.255 6 587 16.7452 587 30V137C587 150.255 597.745 161 611 161H874C887.255 161 898 150.255 898 137V30C898 16.7452 908.745 6 922 6H924C937.255 6 948 16.7452 948 30V137C948 150.255 958.745 161 972 161H1179" stroke="black" stroke-opacity="0.1" stroke-width="12" stroke-linecap="round" stroke-linejoin="round"></path>
<path d="M13 149L25 161L13 173" stroke="#484A4A" stroke-width="4" stroke-linecap="round" stroke-linejoin="round"></path>
<path d="M-22 161H25" stroke="#484A4A" stroke-width="4" stroke-linecap="round" stroke-linejoin="round"></path>
<path d="M158 94L170 82L182 94" stroke="#484A4A" stroke-width="4" stroke-linecap="round" stroke-linejoin="round"></path>
<path d="M170 122V82" stroke="#484A4A" stroke-width="4" stroke-linecap="round" stroke-linejoin="round"></path>
<path d="M526 94L538 82L550 94" stroke="#484A4A" stroke-width="4" stroke-linecap="round" stroke-linejoin="round"></path>
<path d="M538 122V82" stroke="#484A4A" stroke-width="4" stroke-linecap="round" stroke-linejoin="round"></path>
<path d="M208 86L220 98L232 86" stroke="#484A4A" stroke-width="4" stroke-linecap="round" stroke-linejoin="round"></path>
<path d="M220 58V98" stroke="#484A4A" stroke-width="4" stroke-linecap="round" stroke-linejoin="round"></path>
<path d="M576 86L588 98L600 86" stroke="#484A4A" stroke-width="4" stroke-linecap="round" stroke-linejoin="round"></path>
<path d="M588 58V98" stroke="#484A4A" stroke-width="4" stroke-linecap="round" stroke-linejoin="round"></path>
<path d="M391 149L403 161L391 173" stroke="#484A4A" stroke-width="4" stroke-linecap="round" stroke-linejoin="round"></path>
<path d="M356 161H403" stroke="#484A4A" stroke-width="4" stroke-linecap="round" stroke-linejoin="round"></path>
<path d="M755 149L767 161L755 173" stroke="#484A4A" stroke-width="4" stroke-linecap="round" stroke-linejoin="round"></path>
<path d="M720 161H767" stroke="#484A4A" stroke-width="4" stroke-linecap="round" stroke-linejoin="round"></path>
</svg>
